<?xml version="1.0" encoding="UTF-8" standalone="no"?>
<!DOCTYPE svg PUBLIC "-//W3C//DTD SVG 1.1//EN"
 "http://www.w3.org/Graphics/SVG/1.1/DTD/svg11.dtd">
<!-- Generated by graphviz version 2.26.3 (20100126.1600)
 -->
<!-- Title: name Pages: 1 -->
<svg width="294pt" height="468pt"
 viewBox="0.00 0.00 294.00 468.00" xmlns="http://www.w3.org/2000/svg" xmlns:xlink="http://www.w3.org/1999/xlink">
<g id="graph1" class="graph" transform="scale(1 1) rotate(0) translate(4 464)">
<title>name</title>
<!-- Country -->
<g id="node1" class="node"><title>Country</title>
<polygon fill="Lavender" stroke="Lavender" points="64,-274 64,-297 211,-297 211,-274 64,-274"/>
<polygon fill="none" stroke="black" points="64,-274 64,-297 211,-297 211,-274 64,-274"/>
<text text-anchor="start" x="116" y="-282.7" font-family="Helvetica,sans-Serif" font-weight="bold" font-size="12.00">Country</text>
<polygon fill="White" stroke="White" points="64,-256 64,-274 165,-274 165,-256 64,-256"/>
<polygon fill="none" stroke="black" points="64,-256 64,-274 165,-274 165,-256 64,-256"/>
<text text-anchor="start" x="67" y="-262.2" font-family="Helvetica,sans-Serif" font-size="12.00">Code</text>
<polygon fill="White" stroke="White" points="165,-256 165,-274 211,-274 211,-256 165,-256"/>
<polygon fill="none" stroke="black" points="165,-256 165,-274 211,-274 211,-256 165,-256"/>
<text text-anchor="start" x="168" y="-262.2" font-family="Helvetica,sans-Serif" font-size="12.00">char</text>
<polygon fill="White" stroke="White" points="64,-238 64,-256 165,-256 165,-238 64,-238"/>
<polygon fill="none" stroke="black" points="64,-238 64,-256 165,-256 165,-238 64,-238"/>
<text text-anchor="start" x="67" y="-244.2" font-family="Helvetica,sans-Serif" font-size="12.00">Name</text>
<polygon fill="White" stroke="White" points="165,-238 165,-256 211,-256 211,-238 165,-238"/>
<polygon fill="none" stroke="black" points="165,-238 165,-256 211,-256 211,-238 165,-238"/>
<text text-anchor="start" x="168" y="-244.2" font-family="Helvetica,sans-Serif" font-size="12.00">char</text>
<polygon fill="White" stroke="White" points="64,-220 64,-238 165,-238 165,-220 64,-220"/>
<polygon fill="none" stroke="black" points="64,-220 64,-238 165,-238 165,-220 64,-220"/>
<text text-anchor="start" x="67" y="-226.2" font-family="Helvetica,sans-Serif" font-size="12.00">Continent</text>
<polygon fill="White" stroke="White" points="165,-220 165,-238 211,-238 211,-220 165,-220"/>
<polygon fill="none" stroke="black" points="165,-220 165,-238 211,-238 211,-220 165,-220"/>
<text text-anchor="start" x="168" y="-226.2" font-family="Helvetica,sans-Serif" font-size="12.00">enum</text>
<polygon fill="White" stroke="White" points="64,-202 64,-220 165,-220 165,-202 64,-202"/>
<polygon fill="none" stroke="black" points="64,-202 64,-220 165,-220 165,-202 64,-202"/>
<text text-anchor="start" x="67" y="-208.2" font-family="Helvetica,sans-Serif" font-size="12.00">Region</text>
<polygon fill="White" stroke="White" points="165,-202 165,-220 211,-220 211,-202 165,-202"/>
<polygon fill="none" stroke="black" points="165,-202 165,-220 211,-220 211,-202 165,-202"/>
<text text-anchor="start" x="168" y="-208.2" font-family="Helvetica,sans-Serif" font-size="12.00">char</text>
<polygon fill="White" stroke="White" points="64,-184 64,-202 165,-202 165,-184 64,-184"/>
<polygon fill="none" stroke="black" points="64,-184 64,-202 165,-202 165,-184 64,-184"/>
<text text-anchor="start" x="67" y="-190.2" font-family="Helvetica,sans-Serif" font-size="12.00">SurfaceArea</text>
<polygon fill="White" stroke="White" points="165,-184 165,-202 211,-202 211,-184 165,-184"/>
<polygon fill="none" stroke="black" points="165,-184 165,-202 211,-202 211,-184 165,-184"/>
<text text-anchor="start" x="168" y="-190.2" font-family="Helvetica,sans-Serif" font-size="12.00">float</text>
<polygon fill="White" stroke="White" points="64,-166 64,-184 165,-184 165,-166 64,-166"/>
<polygon fill="none" stroke="black" points="64,-166 64,-184 165,-184 165,-166 64,-166"/>
<text text-anchor="start" x="67" y="-172.2" font-family="Helvetica,sans-Serif" font-size="12.00">IndepYear</text>
<polygon fill="White" stroke="White" points="165,-166 165,-184 211,-184 211,-166 165,-166"/>
<polygon fill="none" stroke="black" points="165,-166 165,-184 211,-184 211,-166 165,-166"/>
<text text-anchor="start" x="168" y="-172.2" font-family="Helvetica,sans-Serif" font-size="12.00">smallint</text>
<polygon fill="White" stroke="White" points="64,-148 64,-166 165,-166 165,-148 64,-148"/>
<polygon fill="none" stroke="black" points="64,-148 64,-166 165,-166 165,-148 64,-148"/>
<text text-anchor="start" x="67" y="-154.2" font-family="Helvetica,sans-Serif" font-size="12.00">Population</text>
<polygon fill="White" stroke="White" points="165,-148 165,-166 211,-166 211,-148 165,-148"/>
<polygon fill="none" stroke="black" points="165,-148 165,-166 211,-166 211,-148 165,-148"/>
<text text-anchor="start" x="168" y="-154.2" font-family="Helvetica,sans-Serif" font-size="12.00">int</text>
<polygon fill="White" stroke="White" points="64,-130 64,-148 165,-148 165,-130 64,-130"/>
<polygon fill="none" stroke="black" points="64,-130 64,-148 165,-148 165,-130 64,-130"/>
<text text-anchor="start" x="67" y="-136.2" font-family="Helvetica,sans-Serif" font-size="12.00">LifeExpectancy</text>
<polygon fill="White" stroke="White" points="165,-130 165,-148 211,-148 211,-130 165,-130"/>
<polygon fill="none" stroke="black" points="165,-130 165,-148 211,-148 211,-130 165,-130"/>
<text text-anchor="start" x="168" y="-136.2" font-family="Helvetica,sans-Serif" font-size="12.00">float</text>
<polygon fill="White" stroke="White" points="64,-112 64,-130 165,-130 165,-112 64,-112"/>
<polygon fill="none" stroke="black" points="64,-112 64,-130 165,-130 165,-112 64,-112"/>
<text text-anchor="start" x="67" y="-118.2" font-family="Helvetica,sans-Serif" font-size="12.00">GNP</text>
<polygon fill="White" stroke="White" points="165,-112 165,-130 211,-130 211,-112 165,-112"/>
<polygon fill="none" stroke="black" points="165,-112 165,-130 211,-130 211,-112 165,-112"/>
<text text-anchor="start" x="168" y="-118.2" font-family="Helvetica,sans-Serif" font-size="12.00">float</text>
<polygon fill="White" stroke="White" points="64,-94 64,-112 165,-112 165,-94 64,-94"/>
<polygon fill="none" stroke="black" points="64,-94 64,-112 165,-112 165,-94 64,-94"/>
<text text-anchor="start" x="67" y="-100.2" font-family="Helvetica,sans-Serif" font-size="12.00">GNPOld</text>
<polygon fill="White" stroke="White" points="165,-94 165,-112 211,-112 211,-94 165,-94"/>
<polygon fill="none" stroke="black" points="165,-94 165,-112 211,-112 211,-94 165,-94"/>
<text text-anchor="start" x="168" y="-100.2" font-family="Helvetica,sans-Serif" font-size="12.00">float</text>
<polygon fill="White" stroke="White" points="64,-76 64,-94 165,-94 165,-76 64,-76"/>
<polygon fill="none" stroke="black" points="64,-76 64,-94 165,-94 165,-76 64,-76"/>
<text text-anchor="start" x="67" y="-82.2" font-family="Helvetica,sans-Serif" font-size="12.00">LocalName</text>
<polygon fill="White" stroke="White" points="165,-76 165,-94 211,-94 211,-76 165,-76"/>
<polygon fill="none" stroke="black" points="165,-76 165,-94 211,-94 211,-76 165,-76"/>
<text text-anchor="start" x="168" y="-82.2" font-family="Helvetica,sans-Serif" font-size="12.00">char</text>
<polygon fill="White" stroke="White" points="64,-58 64,-76 165,-76 165,-58 64,-58"/>
<polygon fill="none" stroke="black" points="64,-58 64,-76 165,-76 165,-58 64,-58"/>
<text text-anchor="start" x="67" y="-64.2" font-family="Helvetica,sans-Serif" font-size="12.00">GovernmentForm</text>
<polygon fill="White" stroke="White" points="165,-58 165,-76 211,-76 211,-58 165,-58"/>
<polygon fill="none" stroke="black" points="165,-58 165,-76 211,-76 211,-58 165,-58"/>
<text text-anchor="start" x="168" y="-64.2" font-family="Helvetica,sans-Serif" font-size="12.00">char</text>
<polygon fill="White" stroke="White" points="64,-40 64,-58 165,-58 165,-40 64,-40"/>
<polygon fill="none" stroke="black" points="64,-40 64,-58 165,-58 165,-40 64,-40"/>
<text text-anchor="start" x="67" y="-46.2" font-family="Helvetica,sans-Serif" font-size="12.00">HeadOfState</text>
<polygon fill="White" stroke="White" points="165,-40 165,-58 211,-58 211,-40 165,-40"/>
<polygon fill="none" stroke="black" points="165,-40 165,-58 211,-58 211,-40 165,-40"/>
<text text-anchor="start" x="168" y="-46.2" font-family="Helvetica,sans-Serif" font-size="12.00">char</text>
<polygon fill="White" stroke="White" points="64,-22 64,-40 165,-40 165,-22 64,-22"/>
<polygon fill="none" stroke="black" points="64,-22 64,-40 165,-40 165,-22 64,-22"/>
<text text-anchor="start" x="67" y="-28.2" font-family="Helvetica,sans-Serif" font-size="12.00">Capital</text>
<polygon fill="White" stroke="White" points="165,-22 165,-40 211,-40 211,-22 165,-22"/>
<polygon fill="none" stroke="black" points="165,-22 165,-40 211,-40 211,-22 165,-22"/>
<text text-anchor="start" x="168" y="-28.2" font-family="Helvetica,sans-Serif" font-size="12.00">int</text>
<polygon fill="White" stroke="White" points="64,-4 64,-22 165,-22 165,-4 64,-4"/>
<polygon fill="none" stroke="black" points="64,-4 64,-22 165,-22 165,-4 64,-4"/>
<text text-anchor="start" x="67" y="-10.2" font-family="Helvetica,sans-Serif" font-size="12.00">Code2</text>
<polygon fill="White" stroke="White" points="165,-4 165,-22 211,-22 211,-4 165,-4"/>
<polygon fill="none" stroke="black" points="165,-4 165,-22 211,-22 211,-4 165,-4"/>
<text text-anchor="start" x="168" y="-10.2" font-family="Helvetica,sans-Serif" font-size="12.00">char</text>
</g>
<!-- City -->
<g id="node2" class="node"><title>City</title>
<polygon fill="Lavender" stroke="Lavender" points="8,-432 8,-455 114,-455 114,-432 8,-432"/>
<polygon fill="none" stroke="black" points="8,-432 8,-455 114,-455 114,-432 8,-432"/>
<text text-anchor="start" x="50" y="-440.7" font-family="Helvetica,sans-Serif" font-weight="bold" font-size="12.00">City</text>
<polygon fill="White" stroke="White" points="8,-414 8,-432 85,-432 85,-414 8,-414"/>
<polygon fill="none" stroke="black" points="8,-414 8,-432 85,-432 85,-414 8,-414"/>
<text text-anchor="start" x="11" y="-420.2" font-family="Helvetica,sans-Serif" font-size="12.00">ID</text>
<polygon fill="White" stroke="White" points="85,-414 85,-432 114,-432 114,-414 85,-414"/>
<polygon fill="none" stroke="black" points="85,-414 85,-432 114,-432 114,-414 85,-414"/>
<text text-anchor="start" x="88" y="-420.2" font-family="Helvetica,sans-Serif" font-size="12.00">int</text>
<polygon fill="White" stroke="White" points="8,-396 8,-414 85,-414 85,-396 8,-396"/>
<polygon fill="none" stroke="black" points="8,-396 8,-414 85,-414 85,-396 8,-396"/>
<text text-anchor="start" x="11" y="-402.2" font-family="Helvetica,sans-Serif" font-size="12.00">Name</text>
<polygon fill="White" stroke="White" points="85,-396 85,-414 114,-414 114,-396 85,-396"/>
<polygon fill="none" stroke="black" points="85,-396 85,-414 114,-414 114,-396 85,-396"/>
<text text-anchor="start" x="88" y="-402.2" font-family="Helvetica,sans-Serif" font-size="12.00">char</text>
<polygon fill="White" stroke="White" points="8,-378 8,-396 85,-396 85,-378 8,-378"/>
<polygon fill="none" stroke="black" points="8,-378 8,-396 85,-396 85,-378 8,-378"/>
<text text-anchor="start" x="11" y="-384.2" font-family="Helvetica,sans-Serif" font-size="12.00">CountryCode</text>
<polygon fill="White" stroke="White" points="85,-378 85,-396 114,-396 114,-378 85,-378"/>
<polygon fill="none" stroke="black" points="85,-378 85,-396 114,-396 114,-378 85,-378"/>
<text text-anchor="start" x="88" y="-384.2" font-family="Helvetica,sans-Serif" font-size="12.00">char</text>
<polygon fill="White" stroke="White" points="8,-360 8,-378 85,-378 85,-360 8,-360"/>
<polygon fill="none" stroke="black" points="8,-360 8,-378 85,-378 85,-360 8,-360"/>
<text text-anchor="start" x="11" y="-366.2" font-family="Helvetica,sans-Serif" font-size="12.00">District</text>
<polygon fill="White" stroke="White" points="85,-360 85,-378 114,-378 114,-360 85,-360"/>
<polygon fill="none" stroke="black" points="85,-360 85,-378 114,-378 114,-360 85,-360"/>
<text text-anchor="start" x="88" y="-366.2" font-family="Helvetica,sans-Serif" font-size="12.00">char</text>
<polygon fill="White" stroke="White" points="8,-342 8,-360 85,-360 85,-342 8,-342"/>
<polygon fill="none" stroke="black" points="8,-342 8,-360 85,-360 85,-342 8,-342"/>
<text text-anchor="start" x="11" y="-348.2" font-family="Helvetica,sans-Serif" font-size="12.00">Population</text>
<polygon fill="White" stroke="White" points="85,-342 85,-360 114,-360 114,-342 85,-342"/>
<polygon fill="none" stroke="black" points="85,-342 85,-360 114,-360 114,-342 85,-342"/>
<text text-anchor="start" x="88" y="-348.2" font-family="Helvetica,sans-Serif" font-size="12.00">int</text>
</g>
<!-- City&#45;&gt;Country -->
<g id="edge2" class="edge"><title>City&#45;&gt;Country</title>
<path fill="none" stroke="black" d="M79.5917,-338.332C82.2009,-329.818 84.977,-320.759 87.8462,-311.397"/>
<polygon fill="black" stroke="black" points="91.2831,-312.127 90.8668,-301.54 84.5903,-310.076 91.2831,-312.127"/>
</g>
<!-- CountryLanguage -->
<g id="node4" class="node"><title>CountryLanguage</title>
<polygon fill="Lavender" stroke="Lavender" points="148,-423 148,-446 279,-446 279,-423 148,-423"/>
<polygon fill="none" stroke="black" points="148,-423 148,-446 279,-446 279,-423 148,-423"/>
<text text-anchor="start" x="165" y="-431.7" font-family="Helvetica,sans-Serif" font-weight="bold" font-size="12.00">CountryLanguage</text>
<polygon fill="White" stroke="White" points="148,-405 148,-423 225,-423 225,-405 148,-405"/>
<polygon fill="none" stroke="black" points="148,-405 148,-423 225,-423 225,-405 148,-405"/>
<text text-anchor="start" x="151" y="-411.2" font-family="Helvetica,sans-Serif" font-size="12.00">CountryCode</text>
<polygon fill="White" stroke="White" points="225,-405 225,-423 279,-423 279,-405 225,-405"/>
<polygon fill="none" stroke="black" points="225,-405 225,-423 279,-423 279,-405 225,-405"/>
<text text-anchor="start" x="228" y="-411.2" font-family="Helvetica,sans-Serif" font-size="12.00">char</text>
<polygon fill="White" stroke="White" points="148,-387 148,-405 225,-405 225,-387 148,-387"/>
<polygon fill="none" stroke="black" points="148,-387 148,-405 225,-405 225,-387 148,-387"/>
<text text-anchor="start" x="151" y="-393.2" font-family="Helvetica,sans-Serif" font-size="12.00">Language</text>
<polygon fill="White" stroke="White" points="225,-387 225,-405 279,-405 279,-387 225,-387"/>
<polygon fill="none" stroke="black" points="225,-387 225,-405 279,-405 279,-387 225,-387"/>
<text text-anchor="start" x="228" y="-393.2" font-family="Helvetica,sans-Serif" font-size="12.00">char</text>
<polygon fill="White" stroke="White" points="148,-369 148,-387 225,-387 225,-369 148,-369"/>
<polygon fill="none" stroke="black" points="148,-369 148,-387 225,-387 225,-369 148,-369"/>
<text text-anchor="start" x="151" y="-375.2" font-family="Helvetica,sans-Serif" font-size="12.00">IsOfficial</text>
<polygon fill="White" stroke="White" points="225,-369 225,-387 279,-387 279,-369 225,-369"/>
<polygon fill="none" stroke="black" points="225,-369 225,-387 279,-387 279,-369 225,-369"/>
<text text-anchor="start" x="228" y="-375.2" font-family="Helvetica,sans-Serif" font-size="12.00">enum</text>
<polygon fill="White" stroke="White" points="148,-351 148,-369 225,-369 225,-351 148,-351"/>
<polygon fill="none" stroke="black" points="148,-351 148,-369 225,-369 225,-351 148,-351"/>
<text text-anchor="start" x="151" y="-357.2" font-family="Helvetica,sans-Serif" font-size="12.00">Percentage</text>
<polygon fill="White" stroke="White" points="225,-351 225,-369 279,-369 279,-351 225,-351"/>
<polygon fill="none" stroke="black" points="225,-351 225,-369 279,-369 279,-351 225,-351"/>
<text text-anchor="start" x="228" y="-357.2" font-family="Helvetica,sans-Serif" font-size="12.00">float</text>
</g>
<!-- CountryLanguage&#45;&gt;Country -->
<g id="edge4" class="edge"><title>CountryLanguage&#45;&gt;Country</title>
<path fill="none" stroke="black" d="M197.16,-347.313C193.798,-336.34 190.079,-324.206 186.189,-311.512"/>
<polygon fill="black" stroke="black" points="189.46,-310.24 183.184,-301.705 182.767,-312.291 189.46,-310.24"/>
</g>
</g>
</svg>
